<?xml version="1.0" encoding="UTF-8" standalone="no"?>
<!-- Created with Inkscape (http://www.inkscape.org/) -->

<svg
   xmlns:dc="http://purl.org/dc/elements/1.1/"
   xmlns:cc="http://creativecommons.org/ns#"
   xmlns:rdf="http://www.w3.org/1999/02/22-rdf-syntax-ns#"
   xmlns:svg="http://www.w3.org/2000/svg"
   xmlns="http://www.w3.org/2000/svg"
   xmlns:sodipodi="http://sodipodi.sourceforge.net/DTD/sodipodi-0.dtd"
   xmlns:inkscape="http://www.inkscape.org/namespaces/inkscape"
   width="600"
   height="150"
   viewBox="0 0 158.75 39.687501"
   version="1.1"
   id="svg8"
   inkscape:version="0.92.1 r"
   sodipodi:docname="dotfiles.svg"
   inkscape:export-filename="/home/dwowitz/projects/dotfilesgraphic/dotfiles.png"
   inkscape:export-xdpi="95.362312"
   inkscape:export-ydpi="95.362312">
  <defs
     id="defs2">
    <filter
       style="color-interpolation-filters:sRGB;"
       inkscape:label="Drop Shadow"
       id="filter6293">
      <feFlood
         flood-opacity="0.498039"
         flood-color="rgb(0,0,0)"
         result="flood"
         id="feFlood6283" />
      <feComposite
         in="flood"
         in2="SourceGraphic"
         operator="in"
         result="composite1"
         id="feComposite6285" />
      <feGaussianBlur
         in="composite1"
         stdDeviation="1"
         result="blur"
         id="feGaussianBlur6287" />
      <feOffset
         dx="0.5"
         dy="0.6"
         result="offset"
         id="feOffset6289" />
      <feComposite
         in="offset"
         in2="SourceGraphic"
         operator="out"
         result="composite2"
         id="feComposite6291" />
    </filter>
  </defs>
  <sodipodi:namedview
     id="base"
     pagecolor="#ffffff"
     bordercolor="#666666"
     borderopacity="1.0"
     inkscape:pageopacity="0.0"
     inkscape:pageshadow="2"
     inkscape:zoom="2.1692116"
     inkscape:cx="288.41147"
     inkscape:cy="74.049933"
     inkscape:document-units="px"
     inkscape:current-layer="layer1"
     showgrid="true"
     units="px"
     inkscape:window-width="2160"
     inkscape:window-height="1384"
     inkscape:window-x="0"
     inkscape:window-y="28"
     inkscape:window-maximized="0"
     inkscape:pagecheckerboard="true"
     borderlayer="false"
     inkscape:showpageshadow="false" />
  <metadata
     id="metadata5">
    <rdf:RDF>
      <cc:Work
         rdf:about="">
        <dc:format>image/svg+xml</dc:format>
        <dc:type
           rdf:resource="http://purl.org/dc/dcmitype/StillImage" />
        <dc:title />
      </cc:Work>
    </rdf:RDF>
  </metadata>
  <g
     inkscape:groupmode="layer"
     id="layer2"
     inkscape:label="Layer 2">
    <rect
       style="fill:#7caedb;fill-opacity:1;stroke:none;stroke-width:1.36053169;stroke-opacity:1"
       id="rect5417"
       width="158.75"
       height="39.6875"
       x="0"
       y="-5e-07" />
  </g>
  <g
     inkscape:label="Layer 1"
     inkscape:groupmode="layer"
     id="layer1"
     transform="translate(0,-257.31248)">
    <g
       aria-label="~/.files"
       transform="matrix(0.27771935,0,0,0.27771935,-1.903472,252.99429)"
       style="font-style:normal;font-weight:normal;font-size:40px;line-height:1.25;font-family:sans-serif;letter-spacing:0px;word-spacing:0px;opacity:1;fill:#000000;fill-opacity:1;stroke:none"
       id="flowRoot4586" />
    <g
       aria-label="."
       style="font-style:normal;font-weight:normal;font-size:10.58333397px;line-height:1.25;font-family:sans-serif;letter-spacing:0px;word-spacing:0px;opacity:1;fill:#000000;fill-opacity:1;stroke:none;stroke-width:0.26458335;"
       id="text4600"
       transform="translate(0,-1.5875)">
      <path
         id="path4514"
         style="font-style:normal;font-variant:normal;font-weight:normal;font-stretch:normal;font-size:76.20000458px;font-family:'RobotoMono Nerd Font';-inkscape-font-specification:'RobotoMono Nerd Font';opacity:1;stroke-width:0.26458335;"
         d="m 46.294986,284.72535 q 0,-1.11621 0.334864,-2.0836 0.37207,-0.96738 1.041797,-1.67431 0.669726,-0.74414 1.674316,-1.15342 1.00459,-0.40928 2.344043,-0.40928 1.339453,0 2.344043,0.40928 1.041797,0.40928 1.711524,1.15342 0.706933,0.70693 1.041797,1.67431 0.37207,0.96739 0.37207,2.0836 0,1.079 -0.37207,2.04639 -0.334864,0.93017 -1.041797,1.6371 -0.669727,0.70694 -1.711524,1.07901 -1.00459,0.40928 -2.344043,0.40928 -1.339453,0 -2.344043,-0.40928 -1.00459,-0.37207 -1.674316,-1.07901 -0.669727,-0.70693 -1.041797,-1.6371 -0.334864,-0.96739 -0.334864,-2.04639 z m 102.590134,0.43107 q 0,-0.32545 -0.15622,-0.57279 -0.1432,-0.24735 -0.53374,-0.45564 -0.37753,-0.22131 -1.01541,-0.40356 -0.63789,-0.18225 -1.61425,-0.36451 -1.23672,-0.24734 -2.26515,-0.61185 -1.01541,-0.37752 -1.74442,-0.89824 -0.72901,-0.53375 -1.14559,-1.22371 -0.40356,-0.68995 -0.40356,-1.5882 0,-0.87222 0.41657,-1.66632 0.41658,-0.7941 1.19767,-1.39294 0.78108,-0.59883 1.90064,-0.95032 1.11956,-0.35148 2.52551,-0.35148 1.47105,0 2.64268,0.35148 1.17162,0.33847 1.97875,0.95032 0.82013,0.59884 1.24973,1.432 0.4296,0.83315 0.4296,1.80951 h -3.61903 q 0,-0.82014 -0.66392,-1.3669 -0.66393,-0.55978 -2.01781,-0.55978 -1.26275,0 -1.91366,0.45564 -0.63789,0.45563 -0.63789,1.11955 0,0.31244 0.13019,0.58582 0.13018,0.26036 0.45563,0.48167 0.33847,0.20828 0.91127,0.39054 0.57279,0.16923 1.45802,0.29941 1.27578,0.20829 2.3693,0.53375 1.09352,0.32545 1.88762,0.84617 0.7941,0.50771 1.23672,1.24974 0.45563,0.72901 0.45563,1.74442 0,0.93731 -0.45563,1.73141 -0.44262,0.78109 -1.27577,1.35388 -0.82015,0.5728 -1.99177,0.89825 -1.17163,0.31244 -2.61664,0.31244 -1.58821,0 -2.81191,-0.41658 -1.21068,-0.41658 -2.03082,-1.08051 -0.82014,-0.67694 -1.24974,-1.52311 -0.41658,-0.8592 -0.41658,-1.71839 h 3.4498 q 0.039,0.5728 0.31243,0.98937 0.27338,0.40357 0.70298,0.66393 0.4296,0.24734 0.97636,0.3645 0.55977,0.11717 1.14559,0.11717 1.34086,0 2.04384,-0.4296 0.70298,-0.4296 0.70298,-1.10654 z m -21.10233,4.12674 q -1.62727,0 -2.95511,-0.53374 -1.32785,-0.53375 -2.27817,-1.44501 -0.95032,-0.92429 -1.47104,-2.16101 -0.50771,-1.24973 -0.50771,-2.66871 v -0.52072 q 0,-1.61424 0.50771,-2.94209 0.5077,-1.34086 1.41897,-2.3042 0.91127,-0.96334 2.161,-1.49708 1.24974,-0.53374 2.72078,-0.53374 1.52312,0 2.70777,0.5077 1.19766,0.49469 2.0178,1.40596 0.83316,0.91126 1.26276,2.20005 0.4296,1.27578 0.4296,2.82493 v 1.53613 h -9.55529 q 0.10415,0.716 0.41658,1.31483 0.32545,0.58582 0.82014,1.01541 0.49469,0.4296 1.13258,0.66393 0.63788,0.23432 1.39293,0.23432 0.53375,0 1.05447,-0.10414 0.53374,-0.10415 1.01541,-0.29942 0.48167,-0.20829 0.89825,-0.5077 0.41658,-0.29942 0.72901,-0.70298 l 1.80952,1.95271 q -0.33847,0.48167 -0.88523,0.95032 -0.53375,0.45564 -1.27578,0.82014 -0.72901,0.35149 -1.62726,0.5728 -0.89825,0.22131 -1.93969,0.22131 z m -0.4296,-11.67723 q -0.61185,0 -1.11956,0.2213 -0.5077,0.20829 -0.89825,0.61185 -0.37752,0.40357 -0.63788,0.96334 -0.26037,0.55978 -0.39055,1.24974 h 5.93625 v -0.2864 q -0.026,-0.57279 -0.2213,-1.0805 -0.19527,-0.5077 -0.55978,-0.87221 -0.36451,-0.37753 -0.89825,-0.58582 -0.52072,-0.2213 -1.21068,-0.2213 z M 102.85313,269.027 h 7.87595 v 17.05371 h 4.03561 v 2.94209 h -11.91156 v -2.94209 h 4.21787 v -14.0986 h -4.21787 z m -18.641908,5.91022 h 7.667659 v 11.14349 h 3.8143 v 2.94209 H 84.211222 v -2.94209 h 4.009573 v -8.18839 h -4.009573 z m 3.749211,-3.60602 q 0,-0.41657 0.143201,-0.76806 0.156217,-0.36451 0.429595,-0.61185 0.273382,-0.26036 0.650905,-0.40356 0.390543,-0.1432 0.859194,-0.1432 0.963339,0 1.523119,0.54676 0.572796,0.53374 0.572796,1.37991 0,0.84618 -0.572796,1.39294 -0.55978,0.53374 -1.523119,0.53374 -0.468651,0 -0.859194,-0.1432 -0.377523,-0.1432 -0.650905,-0.39054 -0.273378,-0.26036 -0.429595,-0.61185 -0.143201,-0.36451 -0.143201,-0.78109 z m -20.060882,17.6916 v -11.41687 h -3.697139 v -2.66871 h 3.697139 v -0.76807 q 0,-1.39294 0.442615,-2.46042 0.442615,-1.06748 1.262754,-1.7965 0.820141,-0.72901 1.99177,-1.09352 1.171628,-0.37752 2.616635,-0.37752 0.455635,0 0.872214,0.0391 0.429596,0.026 0.833158,0.0781 0.40356,0.0521 0.807122,0.11716 0.416579,0.0651 0.859194,0.1432 l -0.234325,2.83795 q -0.494688,-0.10415 -1.119557,-0.18226 -0.624868,-0.0781 -1.471046,-0.0781 -1.692352,0 -2.460418,0.71599 -0.768069,0.716 -0.768069,2.05686 v 0.76807 h 5.077057 v 2.66871 h -5.077057 v 11.41687 z m -36.802152,1.62726 h -3.371688 l 7.09486,-20.58161 h 3.371688 z M 20.90423,279.23319 q 0,1.05446 -0.299417,1.95271 -0.286398,0.89825 -0.82014,1.54916 -0.520723,0.63788 -1.262755,1.00239 -0.742031,0.36451 -1.627261,0.36451 -0.572797,0 -1.080502,-0.10415 -0.494688,-0.10414 -0.976357,-0.31243 -0.48167,-0.22131 -0.950321,-0.54676 -0.468652,-0.32546 -0.963339,-0.78109 -0.637887,-0.52072 -1.223701,-0.80712 -0.585814,-0.2864 -1.197665,-0.2864 -0.351488,0 -0.6769408,0.18225 -0.3254524,0.16924 -0.5858143,0.46866 -0.2473438,0.28639 -0.4035609,0.66392 -0.1431991,0.37752 -0.1431991,0.78108 l -2.343257,-0.28639 q 0,-1.05447 0.2863981,-1.92668 0.2863981,-0.88523 0.8071219,-1.5101 0.5337418,-0.63789 1.2627551,-0.98938 0.7420314,-0.35148 1.627262,-0.35148 1.132574,0 2.082895,0.44261 0.963339,0.44262 1.926678,1.28879 0.637887,0.54676 1.210683,0.82014 0.585814,0.27338 1.171628,0.27338 0.351489,0 0.663923,-0.18225 0.312434,-0.18225 0.54676,-0.48167 0.234326,-0.29942 0.377525,-0.67694 0.143199,-0.39054 0.143199,-0.79411 z"
         inkscape:connector-curvature="0" />
    </g>
  </g>
</svg>
